<svg id="delete" xmlns="http://www.w3.org/2000/svg" viewBox="0 0 32 32"><defs><style>.cls-1{fill:#e03e41;}.cls-2{fill:#fff;}</style></defs><rect class="cls-1" x="0.01" y="-0.01" width="32" height="32" rx="10"/><path class="cls-2" d="M20.86,10.45H18.32V10A1.38,1.38,0,0,0,16.94,8.6H15.09A1.38,1.38,0,0,0,13.71,10v.46H11.17A1.15,1.15,0,0,0,10,11.6v.92a.47.47,0,0,0,.47.47H21.55a.46.46,0,0,0,.46-.47V11.6A1.14,1.14,0,0,0,20.86,10.45ZM14.63,10a.47.47,0,0,1,.46-.47h1.85a.47.47,0,0,1,.46.47v.46H14.63Z"/><path class="cls-2" d="M10.89,13.91a.14.14,0,0,0-.14.15l.38,8a1.38,1.38,0,0,0,1.38,1.32h7a1.38,1.38,0,0,0,1.38-1.32l.38-8a.14.14,0,0,0-.14-.15Zm7,1.15a.47.47,0,0,1,.46-.46.46.46,0,0,1,.46.46v6a.45.45,0,0,1-.46.46.46.46,0,0,1-.46-.46Zm-2.31,0a.47.47,0,0,1,.93,0v6a.47.47,0,0,1-.93,0Zm-2.3,0a.46.46,0,0,1,.46-.46.47.47,0,0,1,.46.46v6a.46.46,0,0,1-.46.46.45.45,0,0,1-.46-.46Z"/></svg>