<svg id="Слой_12" data-name="Слой 12" xmlns="http://www.w3.org/2000/svg" viewBox="0 0 32 32"><defs><style>.cls-1{fill:#154d8a;}</style></defs><circle class="cls-1" cx="24.13" cy="13.13" r="1.25"/><path class="cls-1" d="M27,2.5H25.38V1.25a1.25,1.25,0,1,0-2.5,0V2.5H17.19V1.25a1.25,1.25,0,0,0-2.5,0V2.5H9.06V1.25a1.25,1.25,0,0,0-2.5,0V2.5H5a5,5,0,0,0-5,5V27a5,5,0,0,0,5,5h9.56a1.25,1.25,0,1,0,0-2.5H5A2.5,2.5,0,0,1,2.5,27V7.5A2.5,2.5,0,0,1,5,5H6.56V6.25a1.25,1.25,0,0,0,2.5,0V5h5.63V6.25a1.25,1.25,0,1,0,2.5,0V5h5.69V6.25a1.25,1.25,0,1,0,2.5,0V5H27a2.5,2.5,0,0,1,2.5,2.5v7.12a1.25,1.25,0,1,0,2.5,0V7.5A5,5,0,0,0,27,2.5Z"/><path class="cls-1" d="M24.44,16.88A7.56,7.56,0,1,0,32,24.44,7.57,7.57,0,0,0,24.44,16.88Zm0,12.62a5.06,5.06,0,1,1,5.06-5.06A5.07,5.07,0,0,1,24.44,29.5Z"/><path class="cls-1" d="M26.25,23.19h-.56V21.88a1.25,1.25,0,1,0-2.5,0v2.56a1.25,1.25,0,0,0,1.25,1.25h1.81a1.25,1.25,0,0,0,0-2.5Z"/><circle class="cls-1" cx="18.69" cy="13.13" r="1.25"/><circle class="cls-1" cx="13.25" cy="18.56" r="1.25"/><circle class="cls-1" cx="7.81" cy="13.13" r="1.25"/><circle class="cls-1" cx="7.81" cy="18.56" r="1.25"/><circle class="cls-1" cx="7.81" cy="24" r="1.25"/><circle class="cls-1" cx="13.25" cy="24" r="1.25"/><circle class="cls-1" cx="13.25" cy="13.13" r="1.25"/></svg>