<svg id="Слой_12" data-name="Слой 12" xmlns="http://www.w3.org/2000/svg" viewBox="0 0 32 32"><defs><style>.cls-1{fill:#154d8a;}</style></defs><circle class="cls-1" cx="22.09" cy="13.84" r="0.94"/><path class="cls-1" d="M24.25,5.88H23V4.94a.94.94,0,1,0-1.87,0v.94H16.89V4.94a.94.94,0,1,0-1.87,0v.94H10.8V4.94a.94.94,0,1,0-1.88,0v.94H7.75A3.75,3.75,0,0,0,4,9.62V24.25A3.75,3.75,0,0,0,7.75,28h7.17a.94.94,0,1,0,0-1.88H7.75a1.87,1.87,0,0,1-1.87-1.87V9.62A1.87,1.87,0,0,1,7.75,7.75H8.92v.94a.94.94,0,0,0,1.88,0V7.75H15v.94a.94.94,0,0,0,1.87,0V7.75h4.27v.94a.94.94,0,0,0,1.87,0V7.75h1.22a1.87,1.87,0,0,1,1.87,1.87V15A.94.94,0,0,0,28,15V9.62A3.75,3.75,0,0,0,24.25,5.88Z"/><path class="cls-1" d="M22.33,16.66A5.67,5.67,0,1,0,28,22.33,5.67,5.67,0,0,0,22.33,16.66Zm0,9.46a3.8,3.8,0,1,1,3.79-3.79A3.8,3.8,0,0,1,22.33,26.12Z"/><path class="cls-1" d="M23.69,21.39h-.42v-1a.94.94,0,1,0-1.88,0v1.92a.94.94,0,0,0,.94.94h1.36a.94.94,0,0,0,0-1.88Z"/><circle class="cls-1" cx="18.02" cy="13.84" r="0.94"/><circle class="cls-1" cx="13.94" cy="17.92" r="0.94"/><circle class="cls-1" cx="9.86" cy="13.84" r="0.94"/><circle class="cls-1" cx="9.86" cy="17.92" r="0.94"/><circle class="cls-1" cx="9.86" cy="22" r="0.94"/><circle class="cls-1" cx="13.94" cy="22" r="0.94"/><circle class="cls-1" cx="13.94" cy="13.84" r="0.94"/></svg>