<svg id="lopy-line_копия_" data-name="lopy-line (копия)" xmlns="http://www.w3.org/2000/svg" viewBox="0 0 32 32"><defs><style>.cls-1{fill:#064c87;}</style></defs><path class="cls-1" d="M5.28,24a2.73,2.73,0,0,1-2.73-2.73v-16A2.73,2.73,0,0,1,5.28,2.55h16A2.73,2.73,0,0,1,24,5.28a1,1,0,1,1-2,0,.73.73,0,0,0-.73-.73h-16a.72.72,0,0,0-.73.73v16a.73.73,0,0,0,.73.73,1,1,0,1,1,0,2Z"/><path class="cls-1" d="M26.45,29.45H11a3,3,0,0,1-3-3V11a3,3,0,0,1,3-3H26.45a3,3,0,0,1,3,3V26.45A3,3,0,0,1,26.45,29.45ZM11,10a1,1,0,0,0-1,1V26.45a1,1,0,0,0,1,1H26.45a1,1,0,0,0,1-1V11a1,1,0,0,0-1-1Z"/></svg>