<svg xmlns="http://www.w3.org/2000/svg" width="16" height="16" viewBox="0 0 16 16">
  <g id="Icon" transform="translate(-2.547 -2.547)" opacity="0.3">
    <path id="Контур_179" data-name="Контур 179" d="M4.169,15.292a1.624,1.624,0,0,1-1.622-1.623v-9.5A1.624,1.624,0,0,1,4.169,2.547h9.5a1.624,1.624,0,0,1,1.623,1.622.595.595,0,0,1-1.189,0,.434.434,0,0,0-.434-.433h-9.5a.434.434,0,0,0-.433.433v9.5a.434.434,0,0,0,.433.434.595.595,0,0,1,0,1.189Z" fill="#074c86"/>
    <path id="Контур_180" data-name="Контур 180" d="M18.982,20.766H9.8a1.786,1.786,0,0,1-1.784-1.784V9.8A1.786,1.786,0,0,1,9.8,8.021h9.177A1.786,1.786,0,0,1,20.766,9.8v9.177A1.786,1.786,0,0,1,18.982,20.766ZM9.8,9.21A.6.6,0,0,0,9.21,9.8v9.177a.6.6,0,0,0,.595.595h9.177a.6.6,0,0,0,.595-.595V9.8a.6.6,0,0,0-.595-.595Z" transform="translate(-2.219 -2.219)" fill="#074c86"/>
  </g>
</svg>
