<svg xmlns="http://www.w3.org/2000/svg" width="21.333" height="29.455" viewBox="0 0 21.333 29.455"><defs><style>.a{fill:#f0f0f0;}.b{fill:#fff;}.c{fill:#dbdbdb;}.d{fill:#f8f8f8;}</style></defs><g transform="translate(-70.589)"><path class="a" d="M91.922,8.068v19.49a1.9,1.9,0,0,1-1.9,1.9H72.486a1.9,1.9,0,0,1-1.9-1.9V1.9a1.9,1.9,0,0,1,1.9-1.9H83.855Z"/><g transform="translate(75.801 14.788)"><rect class="b" width="10.909" height="1.212"/><rect class="b" width="10.909" height="1.212" transform="translate(0 2.707)"/><rect class="b" width="10.909" height="1.212" transform="translate(0 5.415)"/><rect class="b" width="7.758" height="1.212" transform="translate(0 8.122)"/></g><path class="c" d="M320.31,120.953l6.967,2.87v-2.695l-3.95-1.166Z" transform="translate(-235.355 -113.061)"/><path class="d" d="M309.245,8.068h-6.17a1.9,1.9,0,0,1-1.9-1.9V0Z" transform="translate(-217.322)"/></g></svg>