<svg xmlns="http://www.w3.org/2000/svg" width="24" height="24" viewBox="0 0 24 24">
  <g id="vuesax_linear_task-square" data-name="vuesax/linear/task-square" transform="translate(-492 -316)">
    <g id="task-square">
      <path id="Vector" d="M0,0H5.25" transform="translate(504.37 324.88)" fill="none" stroke="#5f7696" stroke-linecap="round" stroke-linejoin="round" stroke-width="1.5"/>
      <path id="Vector-2" data-name="Vector" d="M0,1.5l.75.75L3,0" transform="translate(498.38 323.38)" fill="none" stroke="#5f7696" stroke-linecap="round" stroke-linejoin="round" stroke-width="1.5"/>
      <path id="Vector-3" data-name="Vector" d="M0,0H5.25" transform="translate(504.37 331.88)" fill="none" stroke="#5f7696" stroke-linecap="round" stroke-linejoin="round" stroke-width="1.5"/>
      <path id="Vector-4" data-name="Vector" d="M0,1.5l.75.75L3,0" transform="translate(498.38 330.38)" fill="none" stroke="#5f7696" stroke-linecap="round" stroke-linejoin="round" stroke-width="1.5"/>
      <path id="Vector-5" data-name="Vector" d="M7,20h6c5,0,7-2,7-7V7c0-5-2-7-7-7H7C2,0,0,2,0,7v6C0,18,2,20,7,20Z" transform="translate(494 318)" fill="none" stroke="#5f7696" stroke-linecap="round" stroke-linejoin="round" stroke-width="1.5"/>
      <path id="Vector-6" data-name="Vector" d="M0,0H24V24H0Z" transform="translate(492 316)" fill="none" opacity="0"/>
    </g>
  </g>
</svg>
