<svg id="Слой_2" data-name="Слой 2" xmlns="http://www.w3.org/2000/svg" viewBox="0 0 16 16"><defs><style>.cls-1{fill:#064d87;}</style></defs><path class="cls-1" d="M2.47,11.08A.77.77,0,0,1,2,10.93,5.52,5.52,0,0,1,0,8.17L0,8,0,7.75C.83,5,4.09,3.13,8,3.13a.75.75,0,0,1,0,1.5C4.92,4.63,2.27,6,1.54,8A4.13,4.13,0,0,0,2.93,9.74a.74.74,0,0,1,.13,1A.75.75,0,0,1,2.47,11.08Z"/><path class="cls-1" d="M8,12.79a.75.75,0,0,1,0-1.5c3.05,0,5.7-1.39,6.43-3.33a4.12,4.12,0,0,0-1.16-1.59.75.75,0,1,1,1-1.14A5.38,5.38,0,0,1,15.9,7.75L16,8l-.06.21C15.09,10.89,11.83,12.79,8,12.79Z"/><path class="cls-1" d="M2.4,13.78a.73.73,0,0,1-.53-.22.74.74,0,0,1,0-1.06L12,2.37a.75.75,0,0,1,1.06,1.07L2.93,13.56A.74.74,0,0,1,2.4,13.78Z"/></svg>