<svg id="SpecialButton" xmlns="http://www.w3.org/2000/svg" width="387" height="48" viewBox="0 0 387 48">
  <rect id="Прямоугольник_147" data-name="Прямоугольник 147" width="387" height="48" fill="#fff" opacity="0"/>
  <text id="Внести_изменение_в_реестр" data-name="Внести изменение в реестр" transform="translate(95.15 29)" fill="#074c86" font-size="16" font-family="Roboto-Bold, Roboto" font-weight="700"><tspan x="0" y="0">Внести изменение в реестр</tspan></text>
  <g id="Сгруппировать_168" data-name="Сгруппировать 168" transform="translate(46 8)">
    <path id="Контур_301" data-name="Контур 301" d="M23.765,3.085,9.541,17.309a5.8,5.8,0,0,0-1.708,4.124V23A1.168,1.168,0,0,0,9,24.167h1.567a5.8,5.8,0,0,0,4.124-1.708L28.915,8.235a3.645,3.645,0,0,0,0-5.15A3.727,3.727,0,0,0,23.765,3.085Zm3.5,3.5L13.041,20.809a3.52,3.52,0,0,1-2.474,1.024h-.4v-.4a3.52,3.52,0,0,1,1.024-2.474L25.415,4.735a1.338,1.338,0,0,1,1.85,0A1.31,1.31,0,0,1,27.265,6.585Z" fill="#f39442"/>
    <path id="Контур_302" data-name="Контур 302" d="M28.833,12.475a1.167,1.167,0,0,0-1.166,1.167V19.5H23A3.5,3.5,0,0,0,19.5,23v4.667H7.833a3.5,3.5,0,0,1-3.5-3.5V7.833a3.5,3.5,0,0,1,3.5-3.5H18.382a1.167,1.167,0,1,0,0-2.333H7.833A5.84,5.84,0,0,0,2,7.833V24.167A5.84,5.84,0,0,0,7.833,30H21.067a5.8,5.8,0,0,0,4.125-1.708l3.1-3.1A5.8,5.8,0,0,0,30,21.067V13.642A1.167,1.167,0,0,0,28.833,12.475ZM23.542,26.642a3.469,3.469,0,0,1-1.709.934V23A1.168,1.168,0,0,1,23,21.833h4.579a3.518,3.518,0,0,1-.933,1.708Z" fill="#f39442"/>
  </g>
</svg>
