<svg id="Layer_1_копия_2" data-name="Layer 1 копия 2" xmlns="http://www.w3.org/2000/svg" viewBox="0 0 512 512"><defs><style>.cls-1{fill:#d3374e;}.cls-2{fill:#fff;}.cls-3{fill:#9b2139;}.cls-4{fill:#f9acac;}</style></defs><path class="cls-1" d="M441.41,140.24V479a33,33,0,0,1-33,33H103.57a33,33,0,0,1-33-33V33a33,33,0,0,1,33-33H301.18Z"/><rect class="cls-2" x="161.18" y="257.05" width="189.63" height="21.07"/><rect class="cls-2" x="161.18" y="304.11" width="189.63" height="21.07"/><rect class="cls-2" x="161.18" y="351.17" width="189.63" height="21.07"/><rect class="cls-2" x="161.18" y="398.23" width="134.85" height="21.07"/><polygon class="cls-3" points="320.31 137.19 441.41 187.08 441.41 140.24 372.75 119.96 320.31 137.19"/><path class="cls-4" d="M441.41,140.24H334.16a33,33,0,0,1-33-33V0Z"/></svg>