<svg xmlns="http://www.w3.org/2000/svg" width="23.177" height="32" viewBox="0 0 23.177 32"><defs><style>.a{fill:#0a598c;}.b{fill:#fff;}.c{fill:#0e3b54;}.d{fill:#aed2f4;}</style></defs><g transform="translate(-4.994 0.068)"><path class="a" d="M28.171,8.7V29.869a2.062,2.062,0,0,1-2.062,2.063H7.056a2.062,2.062,0,0,1-2.062-2.063V1.994A2.062,2.062,0,0,1,7.056-.068H19.407Z"/><rect class="b" width="11.852" height="1.317" transform="translate(10.657 13.521)"/><rect class="b" width="11.852" height="1.317" transform="translate(10.657 16.463)"/><rect class="b" width="8.428" height="1.317" transform="translate(10.657 19.404)"/><path class="c" d="M20.6,8.506l7.569,3.118V8.7L23.88,7.429Z"/><path class="d" d="M28.171,8.7h-6.7a2.062,2.062,0,0,1-2.062-2.063v-6.7Z"/><circle class="d" cx="2.582" cy="2.582" r="2.582" transform="translate(20.321 22.192)"/><path class="d" d="M24.068,29.1,22.9,28.331l-1.165.765V25.309h2.33Z"/></g></svg>