<svg id="Слой_1" data-name="Слой 1" xmlns="http://www.w3.org/2000/svg" viewBox="0 0 16 16"><defs><style>.cls-1{fill:#064d87;}</style></defs><path class="cls-1" d="M8,12.76C4.09,12.76.83,10.86,0,8.14L0,7.93,0,7.72C.83,5,4.09,3.1,8,3.1S15.09,5,15.9,7.72l.06.21-.06.21C15.09,10.86,11.83,12.76,8,12.76ZM1.54,7.93C2.27,9.87,4.92,11.26,8,11.26s5.7-1.39,6.43-3.33C13.66,6,11,4.6,8,4.6S2.27,6,1.54,7.93Z"/><circle class="cls-1" cx="7.96" cy="7.87" r="1.7"/><path class="cls-1" d="M8,10.33a2.46,2.46,0,1,1,2.46-2.46A2.46,2.46,0,0,1,8,10.33ZM8,6.92a1,1,0,0,0,0,1.9,1,1,0,0,0,0-1.9Z"/></svg>