<svg xmlns="http://www.w3.org/2000/svg" width="32.416" height="37.72" viewBox="0 0 32.416 37.72"><defs><style>.a{fill:#f39442;}</style></defs><g transform="translate(0)"><path class="a" d="M214.508,166.126c-.937,0-1.6.4-1.6.979v7.933c0,.5.666,1,1.6,1,.9,0,1.624-.5,1.624-1V167.1C216.132,166.522,215.4,166.126,214.508,166.126Z" transform="translate(-198.3 -152.661)"/><path class="a" d="M213.328,105.762a1.5,1.5,0,1,0,1.687,1.478A1.613,1.613,0,0,0,213.328,105.762Z" transform="translate(-197.12 -97.19)"/><path class="a" d="M48.929,0a16.2,16.2,0,0,0-4.905,31.641l3.686,5.433a1.474,1.474,0,0,0,2.439,0l3.686-5.433A16.2,16.2,0,0,0,48.929,0Zm3.584,28.96a1.474,1.474,0,0,0-.823.592l-2.761,4.07-2.761-4.07a1.474,1.474,0,0,0-.823-.592,13.261,13.261,0,1,1,7.168,0Z" transform="translate(-32.721)"/></g></svg>