<svg id="YouTube" xmlns="http://www.w3.org/2000/svg" viewBox="0 0 32 32"><defs><style>.cls-1{fill:#de2726;}.cls-2{fill:#fff;}</style></defs><path class="cls-1" d="M27.73,10.11A3.06,3.06,0,0,0,25.57,8C23.66,7.43,16,7.43,16,7.43s-7.66,0-9.57.51a3.13,3.13,0,0,0-2.16,2.17A32.62,32.62,0,0,0,3.77,16a32.5,32.5,0,0,0,.5,5.89A3.06,3.06,0,0,0,6.43,24c1.93.53,9.57.53,9.57.53s7.66,0,9.57-.51a3.06,3.06,0,0,0,2.16-2.15,32.62,32.62,0,0,0,.5-5.89A30.13,30.13,0,0,0,27.73,10.11Z"/><path class="cls-2" d="M13.56,19.67,19.93,16l-6.37-3.67Z"/></svg>